<svg xmlns="http://www.w3.org/2000/svg" width="392" height="296" fill="none" viewBox="0 0 392 296">
  <mask id="a" fill="#fff">
    <path fill-rule="evenodd" d="M382.777 118.509 208.663-.001l-1.432 2.104L-.001 164.011l30.783 39.4L211.367 62.322l143.277 97.521 28.133-41.334Z" clip-rule="evenodd"/>
  </mask>
  <path fill="#D9D9D9" fill-rule="evenodd" d="M382.777 118.509 208.663-.001l-1.432 2.104L-.001 164.011l30.783 39.4L211.367 62.322l143.277 97.521 28.133-41.334Z" clip-rule="evenodd"/>
  <path fill="#000" d="m208.663-.001 3.939-5.787-5.787-3.939-3.939 5.787L208.663 0Zm174.114 118.51 5.787 3.939 3.939-5.787-5.787-3.939-3.939 5.787ZM207.231 2.103l4.309 5.516.862-.673.615-.904-5.786-3.939ZM-.001 164.011l-4.31-5.516-5.516 4.309 4.31 5.516 5.516-4.309Zm30.783 39.4-5.516 4.31 4.31 5.516 5.515-4.31-4.31-5.516ZM211.367 62.322l3.939-5.786-4.223-2.875-4.026 3.145 4.31 5.517Zm143.277 97.521-3.939 5.787 5.787 3.938 3.938-5.786-5.786-3.939ZM204.724 5.786l174.115 118.51 7.877-11.574L212.602-5.788l-7.878 11.574Zm8.293.256 1.433-2.104-11.574-7.878-1.432 2.105 11.573 7.877ZM4.308 169.527 211.54 7.619l-8.619-11.032L-4.311 158.495l8.62 11.032Zm31.99 29.575L5.515 159.701l-11.033 8.619 30.784 39.401 11.032-8.619ZM207.057 56.806 26.472 197.895l8.62 11.032L215.676 67.839l-8.62-11.032Zm151.525 97.25-143.276-97.52-7.878 11.573 143.277 97.521 7.877-11.574Zm18.408-39.486-28.133 41.334 11.573 7.878 28.134-41.334-11.574-7.878Z" mask="url(#a)"/>
  <mask id="b" width="367" height="207" x="24.78" y="89" fill="#000" maskUnits="userSpaceOnUse">
    <path fill="#fff" d="M24.78 89h367v207h-367z"/>
    <path fill-rule="evenodd" d="M382.205 199 209 99l-.686 1.188-.329-.569-173.205 100 50 86.603 124.249-71.735 123.176 71.116 50-86.603Z" clip-rule="evenodd"/>
  </mask>
  <path fill="#D9D9D9" fill-rule="evenodd" d="M382.205 199 209 99l-.686 1.188-.329-.569-173.205 100 50 86.603 124.249-71.735 123.176 71.116 50-86.603Z" clip-rule="evenodd"/>
  <path fill="#000" d="m209 99 3.5-6.062-6.062-3.5-3.5 6.062L209 99Zm173.205 100 6.062 3.5 3.5-6.062-6.062-3.5-3.5 6.062Zm-173.891-98.812-6.062 3.5 6.062 10.5 6.062-10.5-6.062-3.5Zm-.329-.569 6.062-3.5-3.5-6.062-6.062 3.5 3.5 6.062Zm-173.205 100-3.5-6.062-6.062 3.5 3.5 6.062 6.062-3.5Zm50 86.603-6.062 3.5 3.5 6.062 6.062-3.5-3.5-6.062Zm124.249-71.735 3.5-6.062-3.5-2.021-3.5 2.021 3.5 6.062Zm123.176 71.116-3.5 6.062 6.062 3.5 3.5-6.062-6.062-3.5ZM205.5 105.062l173.205 100 7-12.124-173.205-100-7 12.124Zm8.876-1.374.686-1.188-12.124-7-.686 1.189 12.124 6.999Zm-12.453-.569.329.569 12.124-7-.329-.569-12.124 7ZM38.28 205.681l173.205-100-7-12.124-173.205 100 7 12.124Zm52.562 77.041-50-86.603-12.124 7 50 86.603 12.124-7Zm114.687-74.297L81.28 280.16l7 12.124 124.249-71.735-7-12.124Zm130.176 71.115-123.176-71.115-7 12.124 123.176 71.116 7-12.125Zm40.438-84.04-50 86.603 12.124 7 50-86.603-12.124-7Z" mask="url(#b)"/>
  <path stroke="#000" stroke-width="20" d="M81.444 104.538 96 147M209 8l2 53m49.952-21-14.556 42.462M297.952 64l-14.556 42.462M164.396 40l14.556 42.462M45.396 133l14.556 42.462M124.396 72l14.556 42.462"/>
</svg>
